<?xml version="1.0" encoding="UTF-8"?>
<svg width="655px" height="207px" viewBox="0 0 655 207" version="1.1" xmlns="http://www.w3.org/2000/svg" xmlns:xlink="http://www.w3.org/1999/xlink">
    <!-- Generator: Sketch 59.1 (86144) - https://sketch.com -->
    <title>logo</title>
    <desc>Created with Sketch.</desc>
    <g id="Page-1" stroke="none" stroke-width="1" fill="none" fill-rule="evenodd">
        <g id="logo" transform="translate(-3.000000, 0.000000)" fill="#FFFFFF">
            <path d="M102.593556,25.3582914 C101.504339,25.3582914 100.553832,25.9377352 99.9284981,26.8221495 C96.3811508,23.9579688 88.5769867,19.2131372 81.7938219,26.1334246 C81.7938219,26.1334246 74.9242473,15.5407849 79.5608122,6.89741459 C80.1202016,7.3497874 80.8046577,7.62426079 81.5505102,7.62426079 C83.4310591,7.62426079 84.9614211,5.91896779 84.9614211,3.81213039 C84.9614211,1.705293 83.4310591,0 81.5505102,0 C79.6676874,0 78.1350515,1.705293 78.1350515,3.81213039 C78.1350515,4.239089 78.2078176,4.64317482 78.3260625,5.02692928 C73.4575557,7.10835248 65.0553452,12.2903084 63.7955821,23.5970871 C63.7955821,23.5970871 55.9982398,12.0564977 44.3010894,19.5460632 C43.6984951,18.4659596 42.6365649,17.7391134 41.4131848,17.7391134 C39.5280881,17.7391134 38,19.4469479 38,21.5512438 C38,23.6555398 39.5280881,25.3633742 41.4131848,25.3633742 C43.2960076,25.3633742 44.8218218,23.6555398 44.8218218,21.5512438 C44.8218218,21.4317971 44.7990824,21.3199746 44.7899866,21.2030693 C48.869436,21.5588681 55.4092892,25.5895606 57.2079762,47.0010263 L57.4126308,48.7495235 C57.4126308,50.5463076 63.9115531,52 71.9249197,52 C79.9428342,52 86.4394825,50.5412248 86.4394825,48.7495235 C86.4394825,48.7495235 86.9602149,34.0601144 99.1985632,29.3762768 C99.2917947,31.3865402 100.763034,32.9927179 102.589009,32.9927179 C104.476379,32.9927179 106,31.282342 106,29.1805875 C106.009015,27.0635844 104.480927,25.3582914 102.593556,25.3582914 Z" id="Path" fill-rule="nonzero"></path>
            <text id="JESTER" font-family="SourceSansPro-Bold, Source Sans Pro" font-size="200" font-weight="bold">
                <tspan x="0" y="204">JESTER</tspan>
            </text>
        </g>
    </g>
</svg>